<svg width="166" height="118" viewBox="0 0 166 118" fill="none" xmlns="http://www.w3.org/2000/svg">
<path d="M29 12H137V73H29V12Z" fill="#D9D9D9"/>
<path d="M136.5 59C140.374 59 144.21 58.237 147.789 56.7544C151.368 55.2719 154.62 53.099 157.36 50.3596C160.099 47.6203 162.272 44.3683 163.754 40.7892C165.237 37.2101 166 33.374 166 29.5L136.5 29.5L136.5 59Z" fill="#848484"/>
<path d="M0 29.5C0 33.374 0.76304 37.2101 2.24555 40.7892C3.72807 44.3683 5.90102 47.6203 8.64035 50.3597C11.3797 53.099 14.6317 55.2719 18.2108 56.7544C21.7899 58.237 25.626 59 29.5 59L29.5 29.5L0 29.5Z" fill="#848484"/>
<path d="M51.5 72.5H116.5V98.5H51.5V72.5Z" fill="#848484"/>
<rect x="13" y="98" width="143" height="20" fill="#D9D9D9"/>
<mask id="mask0_2_48" style="mask-type:alpha" maskUnits="userSpaceOnUse" x="0" y="12" width="166" height="106">
<path d="M29 12H137V73H29V12Z" fill="#D9D9D9"/>
<path d="M136.5 59C140.374 59 144.21 58.237 147.789 56.7544C151.368 55.2719 154.62 53.099 157.36 50.3596C160.099 47.6203 162.272 44.3683 163.754 40.7892C165.237 37.2101 166 33.374 166 29.5L136.5 29.5L136.5 59Z" fill="#848484"/>
<path d="M0 29.5C0 33.374 0.76304 37.2101 2.24555 40.7892C3.72807 44.3683 5.90102 47.6203 8.64035 50.3597C11.3797 53.099 14.6317 55.2719 18.2108 56.7544C21.7899 58.237 25.626 59 29.5 59L29.5 29.5L0 29.5Z" fill="#848484"/>
<path d="M51.5 72.5H116.5V98.5H51.5V72.5Z" fill="#848484"/>
<rect x="13" y="98" width="143" height="20" fill="#D9D9D9"/>
</mask>
<g mask="url(#mask0_2_48)">
<rect x="82" y="12" width="84" height="106" fill="black" fill-opacity="0.2"/>
</g>
</svg>
